<svg id="Layer_1" data-name="Layer 1" xmlns="http://www.w3.org/2000/svg" viewBox="0 0 141.73 141.73"><defs><style>.cls-1{fill:#3c3c3b;}</style></defs><title>CasePrinting-icon_charcoal</title><path class="cls-1" d="M120.42,36.77v0s0-.08,0-.13,0-.1,0-.15v-.07l0-.11,0-.14,0-.08v0l0-.07-.07-.13-.05-.08-.07-.08-.09-.1-.06-.07-.09-.08-.1-.08-.08-.05-.11-.06-.07,0L75.7,14l-.07,0-.17-.06-.16,0-.16,0H74.8l-.18,0-.14,0-.19.07-.07,0L51.84,24.26h0l-.07,0-.17.1-.13.09-.13.12-.11.12-.1.13L51,25l0,.07,0,.08-.06.17c0,.05,0,.11,0,.16s0,.11,0,.17,0,.11,0,.17,0,.11,0,.17,0,.11,0,.17,0,.11,0,.16a1.75,1.75,0,0,0,.06.17l0,.07,0,0a1.74,1.74,0,0,0,.25.38h0a1.74,1.74,0,0,0,.32.27l.11.07.11.07,20.14,9.74v9.75L59.28,53.07h0L22.3,71l-.05,0-.11.06-.09.06-.09.07-.09.08-.08.08-.08.09-.07.09-.06.09-.06.11,0,.05v0l0,.1,0,.13,0,.11,0,.09s0,.09,0,.13,0,.08,0,.13,0,0,0,0v32s0,.07,0,.11a1.75,1.75,0,0,0,0,.19c0,.06,0,.11,0,.16s0,.11,0,.16l.07.16.08.15.1.13.11.13.12.11L22,106l.16.1.1.06,44.44,21.5h0l.18.07.1,0,.07,0a1.76,1.76,0,0,0,.35,0h0a1.76,1.76,0,0,0,.34,0l.07,0h0l.1,0,.17-.06h0L119.4,104.3l.11-.07.16-.09.14-.11.12-.11.11-.14.1-.13.08-.15.07-.15c0-.05,0-.11.05-.16s0-.11,0-.16a1.75,1.75,0,0,0,0-.2s0-.08,0-.12V71a1.39,1.39,0,0,1,0-.56ZM41.27,65.68,59,74.27l-14.2,6.88L27.07,72.57ZM57.15,58l17.74,8.58L63,72.32,45.29,63.74Zm16.54-8,17.74,8.58L78.91,64.62,61.17,56ZM24.81,75.36,65.75,95.17v28.16L24.81,103.52Zm43,16.93-19-9.19L63,76.21l19,9.19Zm18-8.74a1.74,1.74,0,0,0-.57-.45L67,74.27l11.86-5.75,19,9.19Zm16-7.77-.16-.1L82.92,66.57,95.45,60.5l19,9.19-10.4,5h0ZM69.53,20l5.39-2.47,39.64,19.18L112,37.92h0L96.32,45.08,56.67,25.9,69.52,20Zm26,28.58.19.06.13,0a1.74,1.74,0,0,0,.44.06h0a1.73,1.73,0,0,0,.43-.06l.13,0,.17-.06,19.89-9.11V67L75.44,46.93V38.87Zm8.15,59L69.25,123.39V95.49l47.67-23.11v29.2l-13,6Z"/></svg>