<svg id="Layer_1" data-name="Layer 1" xmlns="http://www.w3.org/2000/svg" viewBox="0 0 141.73 141.73"><defs><style>.cls-1{fill:#3c3c3b;}</style></defs><title>PalletPrinting-icon_charcoal</title><path class="cls-1" d="M118,75.18V54.5a1.73,1.73,0,0,0-.13-.62V33.61a1.74,1.74,0,0,0-.07-.47s0-.09-.05-.14a1.73,1.73,0,0,0-.14-.29l-.1-.14a1.73,1.73,0,0,0-.2-.22l-.14-.12-.08-.07a1.72,1.72,0,0,0-.19-.1l-.1-.06L101,25.33a1.73,1.73,0,0,0-.35-.21L75.8,15a1.75,1.75,0,0,0-1.32,0L57.93,21.7a1.72,1.72,0,0,0-.33.19L41.37,28.51a1.72,1.72,0,0,0-.32.19L24.8,35.32a1.73,1.73,0,0,0-.87.8l0,.08a1.72,1.72,0,0,0-.12.31,1.76,1.76,0,0,0,0,.29s0,.09,0,.14h0V57.66s0,.06,0,.09,0,.07,0,.11v49.86h0a1.74,1.74,0,0,0,0,.35c0,.05,0,.1,0,.15a1.76,1.76,0,0,0,.05.17,1.73,1.73,0,0,0,.08.16l.08.14.1.12.12.14.13.11.13.1a1.74,1.74,0,0,0,.31.17h0l35.73,15a1.73,1.73,0,0,0,1,.44l4.88,2,.12,0,.11,0a1.75,1.75,0,0,0,.44.06h0a1.75,1.75,0,0,0,.44-.07l.12,0,.12,0,26.87-11.42a1.74,1.74,0,0,0,1.06-.45L116.57,106a1.75,1.75,0,0,0,1.45-1.72V96.18a1.74,1.74,0,0,0-.13-.65V75.81A1.73,1.73,0,0,0,118,75.18Zm-50.9,48.07-3.69-1.54v-4.84l2.48,1,.12,0,.11,0a1.55,1.55,0,0,0,.89,0l.11,0,.11,0,2.44-1v5.25Zm43.21-26.83a1.74,1.74,0,0,0-.66.27l-15.78,6.5h0l-.63.26V86.55l21.15-8.71v16.9Zm-42,17.26V96.77L89.7,88v16.91ZM52,108.31V91.49l7.82,3.19,5,2.08v16.89ZM27.21,98.1V81.2l1.59.65,12.13,5.08a1.69,1.69,0,0,0,.17.1l7.41,3V106.8Zm0-20.72V60.49L40,65.85V82.64l-9.86-4ZM52,49.79l12.78,5.35V72L52,66.68ZM81.39,87.63l-13,5.31V76l13-5.31Zm-30.13-.34a1.72,1.72,0,0,0-.3-.18l-7.43-3V67.33L64.85,76V92.94l-3.63-1.48ZM98,63.91V80.82l-13,5.31V69.22Zm3.52,15.41V62.41l13-5.31V74Zm12.91-26.2L93.24,61.83V44.93l21.15-8.71ZM89.74,63.48,82.5,66.42a1.72,1.72,0,0,0-.32.19L68.33,72.26V55.15l21.41-8.78Zm-41.23,1.7-21.3-8.69V39.57l21.3,8.69ZM75.14,38.81l11.75,4.94-20.3,8.33L54.84,47.14,67.5,42a1.71,1.71,0,0,0,.27-.16l3.41-1.4ZM27.21,101.88l2.07.85v4.69l-2.07-.87Zm5.57,2.28,8,3.28v4.81l-8-3.36Zm11.54,4.71,2.07.85v4.86l-2.07-.87Zm5.57,2.33,10,4.2v4.84l-10-4.2Zm23.28,4.27,13.2-5.41v5l-13.2,5.61Zm16.7-6.85,2.23-.91h0l.66-.27v4.91l-2.93,1.24ZM96.31,106l12.59-5.18v4.7l-12.59,5.35Zm16.09-6.63,2.11-.87v4.62l-2.11.9ZM91.5,41.86,79.77,36.93l4.3-1.75a1.71,1.71,0,0,0,.26-.16L86.88,34l13-5.3,11.7,4.92ZM75.13,18.47l20.16,8.25-9.81,4-2.05.84L63.22,23.32ZM58.57,25.28l20.17,8.26-4.23,1.74h0l-4.64,1.9-3,1.21L46.66,30.13ZM42,32.09l20.16,8.25L50.29,45.21l-20.2-8.27Z"/><polygon class="cls-1" points="82.63 60.31 82.63 55.9 76.24 58.53 76.24 62.95 82.63 60.31"/><polygon class="cls-1" points="40.61 52.14 34.22 49.5 34.22 53.91 40.61 56.55 40.61 52.14"/><polygon class="cls-1" points="34.22 94.67 40.61 97.31 40.61 92.89 34.22 90.26 34.22 94.67"/><polygon class="cls-1" points="50.99 81.32 57.38 83.95 57.38 79.54 50.99 76.91 50.99 81.32"/><polygon class="cls-1" points="108 45.34 101.6 47.97 101.6 52.38 108 49.75 108 45.34"/><polygon class="cls-1" points="76.24 103.84 82.63 101.21 82.63 96.8 76.24 99.43 76.24 103.84"/><polygon class="cls-1" points="101.6 93.28 108 90.65 108 86.23 101.6 88.87 101.6 93.28"/></svg>